<svg width="24" height="24" viewBox="0 0 24 24" fill="none" xmlns="http://www.w3.org/2000/svg">
<g clip-path="url(#clip0_22_364)">
<path d="M22.0159 10.016H6.81206L12.9225 3.97157C13.7017 3.20104 13.7085 1.94408 12.9379 1.16535C12.1674 0.386099 10.9109 0.379396 10.1317 1.14997L0.589031 10.5891C0.211875 10.9623 0 11.4699 0 12.0001C0 12.5304 0.211875 13.0375 0.589031 13.4107L10.1317 22.8499C10.9109 23.6204 12.1673 23.6141 12.9379 22.8344C13.7085 22.0557 13.7017 20.7992 12.9225 20.0287L6.81206 13.9838H22.0158C23.1115 13.9838 24 13.0958 24 12.0001C24 10.9041 23.1115 10.016 22.0159 10.016Z" fill="#4B4B4B"/>
</g>
<defs>
<clipPath id="clip0_22_364">
<rect width="24" height="24" fill="white"/>
</clipPath>
</defs>
</svg>
