<svg width="24" height="24" viewBox="0 0 24 24" fill="none" xmlns="http://www.w3.org/2000/svg">
<path d="M11.4375 3.93751L11.9578 4.50001L12.5203 3.93844C14.0906 2.40797 16.2656 1.71141 18.4031 2.06719C21.6328 2.60532 24 5.40001 24 8.67657V8.94844C24 10.8938 23.1937 12.7547 21.7687 14.0813L13.2984 21.9891C12.9469 22.3172 12.4828 22.5 12 22.5C11.5172 22.5 11.0531 22.3172 10.7016 21.9891L2.23078 14.0813C0.807656 12.7547 0 10.8938 0 8.94844V8.67657C0 5.40001 2.36813 2.60532 5.59688 2.06719C7.69219 1.71141 9.90938 2.40797 11.4375 3.93751C11.4375 3.93797 11.3953 3.93751 11.4375 3.93751ZM11.9578 7.68282L9.84844 5.48907C8.83125 4.51313 7.3875 4.05001 5.96719 4.28626C3.82266 4.64391 2.25 6.50157 2.25 8.67657V8.94844C2.25 10.2703 2.79891 11.5359 3.76594 12.4359L12 20.1234L20.2359 12.4359C21.2016 11.5359 21.75 10.2703 21.75 8.94844V8.67657C21.75 6.50157 20.175 4.64391 18.0328 4.28626C16.6125 4.05001 15.1687 4.51313 14.1516 5.48907L11.9578 7.68282Z" fill="#25968C"/>
</svg>
