<svg width="109" height="109" viewBox="0 0 109 109" fill="none" xmlns="http://www.w3.org/2000/svg">
<path d="M0 9.61798V99.382H109V9.61798H0ZM100.451 90.8323H8.54947V18.1658H100.451V90.8323Z" fill="#D9D9D9"/>
<path d="M69.4296 44.2234C68.5465 42.8845 67.0488 42.0781 65.4443 42.0798C63.8382 42.0813 62.3425 42.8894 61.4611 44.23L46.0849 67.6296L37.5986 58.0117C36.6153 56.8965 35.1661 56.3039 33.6821 56.4107C32.198 56.5142 30.8489 57.3072 30.0327 58.5509L15.7901 80.2513H93.2097L69.4296 44.2234Z" fill="#D9D9D9"/>
<path d="M37.2499 49.1167C42.5939 49.1167 46.9264 44.7843 46.9264 39.4384C46.9264 34.0945 42.5941 29.7621 37.2499 29.7621C31.9042 29.7621 27.5719 34.0945 27.5719 39.4384C27.5717 44.7843 31.9042 49.1167 37.2499 49.1167Z" fill="#D9D9D9"/>
</svg>
